<?xml version="1.0" encoding="UTF-8"?>
<svg id="Capa_1" data-name="Capa 1" xmlns="http://www.w3.org/2000/svg" viewBox="0 0 1135.79 350.64">
  <defs>
    <style>
      .cls-1 {
        fill: none;
      }

      .cls-2 {
        fill: #227432;
      }

      .cls-3 {
        fill: #224c22;
      }

      .cls-4 {
        fill: #217331;
      }
    </style>
  </defs>
  <path class="cls-3" d="M50.62,249.19h29.8c5.01,0,8.55-4.91,6.97-9.67l-11.72-35.12c-1.59-4.76,1.95-9.67,6.97-9.67h12.48c4.12,0,7.43-3.39,7.34-7.51l-.43-19.38c-.09-3.99-3.35-7.18-7.34-7.18h-28.32c-3.16,0-5.97-2.02-6.97-5.02l-1.77-5.3c-1.59-4.76,1.95-9.67,6.97-9.67h41.25c4.06,0,7.35-3.29,7.35-7.35v-21.21c0-4.06-3.29-7.35-7.35-7.35H7.35c-5.01,0-8.55,4.91-6.97,9.67l43.27,129.73c1,3,3.81,5.02,6.97,5.02Z"/>
  <path class="cls-1" d="M536.37,192.89h-28.35c-4.06,0-7.35,3.29-7.35,7.35v33.34c14.35.2,28.71.56,43.04,1.01v-34.35c0-4.06-3.29-7.35-7.35-7.35Z"/>
  <path class="cls-1" d="M791.26,199.72c4.9-5.78,7.34-13.57,7.34-23.36s-2.45-17.78-7.34-23.56c-4.9-5.78-11.83-8.67-20.81-8.67s-16.12,2.89-21.01,8.67c-4.9,5.78-7.34,13.63-7.34,23.56s2.45,17.58,7.34,23.36c4.9,5.78,11.9,8.67,21.01,8.67s15.91-2.89,20.81-8.67Z"/>
  <path class="cls-1" d="M181,141.93h-10.61c-4.06,0-7.35,3.29-7.35,7.35v9.79c0,4.06,3.29,7.35,7.35,7.35h10.61c4.35,0,7.61-.98,9.79-2.96,2.17-1.97,3.26-5.06,3.26-9.28,0-3.81-1.12-6.8-3.37-8.98-2.24-2.17-5.48-3.26-9.69-3.26Z"/>
  <path class="cls-2" d="M646.23,230.93v-26.16c0-5.55,4.5-10.04,10.04-10.04h20.71c5.55,0,10.04-4.5,10.04-10.04v-13.98c0-5.55-4.5-10.04-10.04-10.04h-20.3c-5.5,0-10.31-4.24-10.45-9.73-.15-5.64,4.38-10.26,9.99-10.26h36.67c5.55,0,10.04-4.5,10.04-10.04v-15.82c0-5.55-4.5-10.04-10.04-10.04h-81.91c-5.55,0-10.04,4.5-10.04,10.04v116.23c0,3.21,2.53,5.85,5.74,5.98,1.9.08,3.79.16,5.68.24,8.71.36,17.4.74,26.07,1.12,4.25.19,7.79-3.2,7.79-7.46Z"/>
  <path class="cls-2" d="M798.37,241.57c6.43-.17,12.71-2.25,17.83-6.14,7.42-5.65,13.55-12.62,18.4-20.92,6.59-11.29,9.89-24,9.89-38.15s-3.3-26.86-9.89-38.15c-6.6-11.29-15.54-20.09-26.82-26.42-11.29-6.32-23.73-9.49-37.33-9.49s-26.08,3.16-37.43,9.49c-11.36,6.32-20.37,15.13-27.03,26.42-6.67,11.29-10,24-10,38.15s3.33,26.86,10,38.15c.95,1.61,2.18,3.31,3.59,5.02,11.28,13.73,28.18,21.63,45.94,22.13l14.44.41s15.73-.17,28.41-.5ZM749.44,199.72c-4.9-5.78-7.34-13.57-7.34-23.36s2.45-17.78,7.34-23.56c4.9-5.78,11.9-8.67,21.01-8.67s15.91,2.89,20.81,8.67c4.9,5.78,7.34,13.63,7.34,23.56s-2.45,17.58-7.34,23.36c-4.9,5.78-11.83,8.67-20.81,8.67s-16.12-2.89-21.01-8.67Z"/>
  <path class="cls-3" d="M248.8,259.55l-33.64-55.77c-3.18-5.27-1.42-12.1,3.9-15.2,5.2-3.03,9.47-6.88,12.84-11.56,5.37-7.48,8.06-16.05,8.06-25.7,0-8.98-2.07-17.03-6.22-24.17s-10.37-12.78-18.66-16.93c-8.3-4.15-18.29-6.22-29.99-6.22h-56.3c-6.09,0-11.02,4.93-11.02,11.02v122.38c0,6.09,4.93,11.02,11.02,11.02h23.25c6.09,0,11.02-4.93,11.02-11.02v-40.79h.2l49.44,84.3s.01.02.02.03c1.03,1.74,3.37,2.13,5.07,1.02,9.36-6.11,19.36-11.39,29.8-15.97,1.51-.66,2.45-2.25,2.18-3.87-.15-.88-.46-1.76-.95-2.57ZM190.79,163.45c-2.18,1.97-5.44,2.96-9.79,2.96h-6.93c-6.09,0-11.02-4.93-11.02-11.02v-2.44c0-6.09,4.93-11.02,11.02-11.02h6.93c4.21,0,7.45,1.09,9.69,3.26,2.24,2.18,3.37,5.17,3.37,8.98,0,4.22-1.09,7.31-3.26,9.28Z"/>
  <path class="cls-3" d="M337.66,238.55v-8.19s0-10.71,0-10.71c0-2.03-.82-3.86-2.15-5.19-1.33-1.33-3.17-2.15-5.19-2.15h-36.31c-2.03,0-3.86-.82-5.19-2.15s-2.15-3.17-2.15-5.19v-5.71c0-2.03.82-3.86,2.15-5.19s3.17-2.15,5.19-2.15h30.19c2.03,0,3.86-.82,5.19-2.15,1.33-1.33,2.15-3.17,2.15-5.19v-19.37c0-2.03-.82-3.86-2.15-5.19-1.33-1.33-3.17-2.15-5.19-2.15h-30.19c-2.03,0-3.86-.82-5.19-2.15-1.33-1.33-2.15-3.17-2.15-5.19v-3.06c0-2.03.82-3.86,2.15-5.19s3.17-2.15,5.19-2.15h36.31c2.03,0,3.86-.82,5.19-2.15s2.15-3.17,2.15-5.19v-21.41c0-2.03-.82-3.86-2.15-5.19-1.33-1.33-3.17-2.15-5.19-2.15h-81.59c-2.03,0-3.86.82-5.19,2.15s-2.15,3.17-2.15,5.19v130.35c0,3.72,3.01,6.73,6.73,6.73h48.86c3.74,0,7.47-.43,11.13-1.2,8.71-1.84,17.47-3.41,26.21-4.76,1.84-.28,3.35-2.03,3.35-3.9Z"/>
  <path class="cls-3" d="M441.11,233.8c.48-.01.94-.22,1.25-.59,1.33-1.55,2.55-3.19,3.64-4.94,4.35-7,6.53-14.92,6.53-23.77s-2.18-15.43-6.53-21.01c-4.35-5.58-9.48-9.93-15.4-13.06-5.91-3.13-13.43-6.39-22.54-9.79-7.89-2.99-13.64-5.54-17.24-7.65-3.6-2.11-5.41-4.79-5.41-8.06,0-2.31.61-4.11,1.84-5.41,1.22-1.29,2.79-1.94,4.69-1.94,2.72,0,5.03.89,6.94,2.65.85.79,1.52,1.8,2.01,3.04,1.35,3.37,4.43,5.73,8.07,5.73h31.44c5.81,0,10.19-5.42,8.82-11.06-2.32-9.6-7.3-17.41-14.95-23.41-10.4-8.16-24.45-12.24-42.12-12.24-10.47,0-19.89,1.7-28.25,5.1-8.36,3.4-14.96,8.4-19.79,14.99-4.83,6.6-7.24,14.59-7.24,23.97-.14,9.38,1.97,17.07,6.32,23.05,4.35,5.99,9.55,10.54,15.61,13.67,6.05,3.13,13.7,6.32,22.95,9.59,7.75,2.72,13.46,5.14,17.13,7.24,3.67,2.11,5.51,4.86,5.51,8.26,0,2.45-.85,4.25-2.55,5.4-.92.62-1.94,1.08-3.07,1.36-5.52,1.4-11.27-1.88-13.3-7.2-1.1-2.89-3.79-4.87-6.9-4.87h-31.59c-5.9,0-10.27,5.58-8.77,11.29,2.67,10.19,8.17,18.29,16.51,24.3.33.24.68.46,1.03.68.33.21.72.3,1.11.26,13.94-1.62,27.61-2.79,40.65-3.73,14.52-.93,29.06-1.52,43.6-1.88Z"/>
  <path class="cls-3" d="M500.67,228.43v-23.12c0-6.86,5.56-12.43,12.43-12.43h18.19c6.86,0,12.43,5.56,12.43,12.43v24.36c0,2.74,2.17,4.98,4.91,5.07,11.71.39,23.41.84,35.09,1.32,2.88.12,5.28-2.19,5.28-5.07v-113.79c0-6.86-5.56-12.43-12.43-12.43h-20.43c-6.86,0-12.43,5.56-12.43,12.43v27.16c0,6.86-5.56,12.43-12.43,12.43h-18.19c-6.86,0-12.43-5.56-12.43-12.43v-27.16c0-6.86-5.56-12.43-12.43-12.43h-20.43c-6.86,0-12.43,5.56-12.43,12.43v111.21c0,2.83,2.31,5.1,5.13,5.07,11.67-.12,23.34-.1,35.02.03,2.83.03,5.14-2.24,5.14-5.07Z"/>
  <path class="cls-2" d="M1100.4,113.94c11.35,6.12,20.09,14.62,26.21,25.5,6.12,10.88,9.18,23.25,9.18,37.12s-3.06,26.11-9.18,37.13c-6.12,11.02-14.86,19.69-26.21,26.01-11.36,6.32-24.58,9.48-39.67,9.48h-49.36c-5.97,0-10.81-4.84-10.81-10.81v-122.8c0-5.97,4.84-10.81,10.81-10.81h49.36c15.09,0,28.32,3.06,39.67,9.18ZM1080.92,200.43c5.98-5.57,8.98-13.53,8.98-23.87s-2.99-18.29-8.98-23.87c-5.99-5.57-14.07-8.36-24.27-8.36h0c-5.97,0-10.81,4.84-10.81,10.81v42.84c0,5.97,4.84,10.81,10.81,10.81h0c10.2,0,18.29-2.79,24.27-8.36Z"/>
  <path class="cls-4" d="M201.25,350.64c-5.29,0-10.59-1.88-14.83-5.71-9.06-8.19-9.77-22.18-1.58-31.25,74.93-82.92,256.3-74.66,431.7-66.68,75.6,3.44,147.01,6.69,205.99,2.51,60.12-4.26,99.25-16.25,116.3-35.64,13.02-14.8,12.07-33.15,9.93-46.14-4.1-12.69-11.81-20.45-22.37-22.48-10.83-2.09-23.12,2.42-29.89,10.96-7.19,9.08-7.59,21.5-1.14,35.92,4.99,11.15,0,24.24-11.16,29.23-11.15,4.99-24.24,0-29.23-11.16-13.23-29.58-10.73-59.27,6.85-81.46,17.1-21.59,45.73-32.16,72.92-26.93,27.32,5.25,48.01,25.1,56.77,54.45.25.82.44,1.66.59,2.51,5.97,34.04-.78,62.41-20.06,84.33-54.44,61.9-194.9,55.51-357.52,48.11-157.46-7.17-335.92-15.29-396.86,52.15-4.37,4.83-10.38,7.29-16.42,7.29Z"/>
  <path class="cls-2" d="M954.25,92.62c20.22-8.25,29.66-20.81,31.97-43,1.52-16.3-15.26-14.33-13.47-44.85.96-16.43-32.39,12.56-43.41,41.81-4.23,12.93-5.66,30.39,7.15,43.32,1.98,1.7,3.83,1.15,4.3-1.29.85-2.76.56-16.25,4.34-15.3,1.26,1.38.98,4.45,1.03,6.4-.07,8.59,1.73,15.27,7.79,13.03l.31-.1Z"/>
  <path class="cls-2" d="M970.49,102.24c.09-8.66,3.35-13.98,11.19-18.07,5.79-2.94,7.51,3.54,18.51-1.58,5.92-2.75.1,13.78-9.08,22.11-4.15,3.45-10.38,6.53-17.02,3.69-.92-.48-.98-1.25-.15-1.77.89-.71,5.91-2.58,5.01-3.83-.69-.26-1.78.29-2.51.55-3.16,1.28-5.89,1.59-5.94-.97v-.13Z"/>
</svg>